<svg width="30" height="30" viewBox="0 0 30 30" fill="none" xmlns="http://www.w3.org/2000/svg">
<path fill-rule="evenodd" clip-rule="evenodd" d="M12.2496 2C8.80269 2 5.99988 4.80282 5.99988 8.24975C5.99988 11.6967 8.80269 14.4995 12.2496 14.4995C15.6966 14.4995 18.4994 11.6967 18.4994 8.24975C18.4994 4.80282 15.6966 2 12.2496 2ZM8.49979 8.24975C8.49979 6.18191 10.1818 4.49992 12.2496 4.49992C14.3175 4.49992 15.9995 6.18191 15.9995 8.24975C15.9995 10.3176 14.3175 11.9996 12.2496 11.9996C10.1818 11.9996 8.49979 10.3176 8.49979 8.24975ZM21.4993 11.9986H18.9993V14.1495C18.0135 14.3916 17.1375 14.9122 16.458 15.622L14.5916 14.5471L13.3442 16.7132L15.2072 17.787C15.072 18.2517 14.9995 18.7418 14.9995 19.2493C14.9995 19.7568 15.072 20.2469 15.2072 20.7116L13.3442 21.7854L14.5916 23.9515L16.458 22.8766C17.1376 23.5864 18.0143 24.107 18.9993 24.349V26.5H21.4993V24.3491C22.485 24.107 23.3611 23.5864 24.0406 22.8766L25.9069 23.9515L27.1544 21.7854L25.2914 20.7116C25.4266 20.2469 25.4991 19.7568 25.4991 19.2493C25.4991 18.7418 25.4266 18.2517 25.2914 17.787L27.1544 16.7132L25.9069 14.5471L24.0406 15.622C23.361 14.9122 22.4842 14.3916 21.4993 14.1495V11.9986ZM8.24979 15.9994C5.35484 15.9994 3 18.3543 3 21.2492V26.499H5.49992V21.2492C5.49992 19.7333 6.73393 18.4993 8.24979 18.4993H11.4997V15.9994H8.24979ZM17.4994 19.2493C17.4994 17.7334 18.7334 16.4994 20.2493 16.4994C21.7652 16.4994 22.9992 17.7334 22.9992 19.2493C22.9992 20.7652 21.7652 21.9992 20.2493 21.9992C18.7334 21.9992 17.4994 20.7652 17.4994 19.2493Z" fill="#6E6E6E"/>
</svg>
