<svg width="30" height="30" viewBox="0 0 30 30" fill="none" xmlns="http://www.w3.org/2000/svg">
<path fill-rule="evenodd" clip-rule="evenodd" d="M11.5156 3H9V5H6.25C5.38805 5 4.5614 5.34241 3.9519 5.9519C3.34241 6.5614 3 7.38805 3 8.25V27.5H27.5V8.25C27.5 7.38805 27.1576 6.5614 26.5481 5.9519C25.9386 5.34241 25.112 5 24.25 5H21.5V3H18.9844V5H11.5156V3ZM5.71967 7.71967C5.86032 7.57902 6.05109 7.5 6.25 7.5H9V9.5H11.5156V7.5H18.9844V9.5H21.5V7.5H24.25C24.4489 7.5 24.6397 7.57902 24.7803 7.71967C24.921 7.86032 25 8.05109 25 8.25V11H5.5V8.25C5.5 8.05109 5.57902 7.86032 5.71967 7.71967ZM5.5 25V13.5H25V25H5.5Z" fill="#6E6E6E"/>
</svg>
