<svg width="30" height="30" viewBox="0 0 30 30" fill="none" xmlns="http://www.w3.org/2000/svg">
<path fill-rule="evenodd" clip-rule="evenodd" d="M3.95286 3.95886C4.56824 3.34349 5.38392 3.005 6.25041 3.005L17.2532 3C18.1211 3 18.9354 3.33674 19.5495 3.95173C20.1638 4.56699 20.5015 5.38156 20.5015 6.25129V8.00242H23.2517C25.0438 8.00242 26.502 9.46066 26.502 11.2527L26.497 24.8788C26.497 25.7723 25.7704 26.5 24.8788 26.5C24.7216 26.5 24.5664 26.4773 24.4163 26.4319L24.2862 26.3842L19.8017 24.5038H9.0005V19.7981L5.08058 21.435C4.93208 21.4794 4.77864 21.5016 4.62316 21.5016C3.73158 21.5016 3.005 20.7738 3.005 19.8803L3 6.2572C3.00002 5.38953 3.33767 4.57406 3.95286 3.95886ZM17.7794 5.71887C17.7004 5.6413 17.5229 5.50125 17.2522 5.50125L6.2512 5.50525C5.98316 5.50528 5.8032 5.64356 5.72071 5.72726C5.64086 5.80736 5.50025 5.98706 5.50025 6.25538L5.50438 18.5541L9.19682 17.0062H18.0003V6.25129C18.0003 5.98134 17.863 5.80248 17.781 5.72048L17.7794 5.71887ZM23.2507 10.5027H20.5005V19.5064H11.4998V22.0036H20.3042L23.9939 23.5515L24 22.7519L24 22.75L24.0008 11.2517C24.0008 10.8396 23.6648 10.5027 23.2507 10.5027Z" fill="#6E6E6E"/>
</svg>
