<svg width="30" height="30" viewBox="0 0 30 30" fill="none" xmlns="http://www.w3.org/2000/svg">
<path fill-rule="evenodd" clip-rule="evenodd" d="M3 14.75C3 8.27107 8.27107 3 14.75 3C21.2289 3 26.5 8.27107 26.5 14.75C26.5 21.2289 21.2289 26.5 14.75 26.5C8.27107 26.5 3 21.2289 3 14.75ZM14.75 5.5C9.64893 5.5 5.5 9.64893 5.5 14.75C5.5 19.8511 9.64893 24 14.75 24C19.8511 24 24 19.8501 24 14.75C24 9.64995 19.8511 5.5 14.75 5.5ZM16.1785 9.13656C17.5197 9.53688 18.5 10.7828 18.5 12.251V12.5H16V12.25C16 11.8356 15.6627 11.5 15.25 11.5H14.25C13.8373 11.5 13.5 11.8356 13.5 12.25C13.5 12.6465 13.74 12.9992 14.1071 13.1471L16.3212 14.0332C17.6452 14.5622 18.5 15.8252 18.5 17.251C18.5 18.7192 17.5197 19.9651 16.1785 20.3654L16 20.4187V21.501H13.5V20.4187L13.3215 20.3654C11.9803 19.9651 11 18.7192 11 17.251V17.001H13.5V17.251C13.5 17.6641 13.8369 18.001 14.25 18.001H15.25C15.6631 18.001 16 17.6641 16 17.251C16 16.8546 15.7606 16.5017 15.3927 16.3548L13.1788 15.4688C11.8548 14.9398 11 13.6768 11 12.251C11 10.7828 11.9803 9.53688 13.3215 9.13656L13.5 9.08328V8.001H16V9.08328L16.1785 9.13656Z" fill="#6E6E6E"/>
</svg>
