<svg width="30" height="30" viewBox="0 0 30 30" fill="none" xmlns="http://www.w3.org/2000/svg">
<path d="M15 27C12.6266 27 10.3066 26.2962 8.33316 24.9776C6.35977 23.6591 4.8217 21.7849 3.91345 19.5922C3.0052 17.3995 2.76756 14.9867 3.23058 12.6589C3.6936 10.3311 4.83649 8.19295 6.51472 6.51472C8.19295 4.83649 10.3311 3.6936 12.6589 3.23058C14.9867 2.76756 17.3995 3.0052 19.5922 3.91345C21.7849 4.8217 23.6591 6.35977 24.9776 8.33316C26.2962 10.3066 27 12.6266 27 15C26.9966 18.1815 25.7312 21.2318 23.4815 23.4815C21.2318 25.7312 18.1815 26.9966 15 27ZM15 6C13.22 6 11.4799 6.52785 9.99987 7.51678C8.51983 8.50571 7.36628 9.91132 6.68509 11.5559C6.0039 13.2004 5.82567 15.01 6.17294 16.7558C6.5202 18.5016 7.37737 20.1053 8.63604 21.364C9.89471 22.6226 11.4984 23.4798 13.2442 23.8271C14.99 24.1743 16.7996 23.9961 18.4442 23.3149C20.0887 22.6337 21.4943 21.4802 22.4832 20.0001C23.4722 18.5201 24 16.78 24 15C23.9974 12.6139 23.0483 10.3262 21.361 8.63897C19.6738 6.95171 17.3861 6.00265 15 6Z" fill="#6E6E6E"/>
<path d="M13.5 17.154C13.4852 16.3827 13.6773 15.6215 14.0562 14.9496C14.4352 14.2776 14.9872 13.7194 15.655 13.333C15.8662 13.2176 16.0431 13.0484 16.1677 12.8426C16.2924 12.6367 16.3604 12.4015 16.3647 12.1609C16.3691 11.9203 16.3098 11.6828 16.1927 11.4725C16.0756 11.2622 15.905 11.0867 15.6981 10.9637C15.4913 10.8407 15.2555 10.7746 15.0149 10.7721C14.7742 10.7697 14.5372 10.8309 14.3279 10.9497C14.1186 11.0684 13.9444 11.2405 13.823 11.4483C13.7017 11.6561 13.6375 11.8924 13.637 12.133H10.637C10.6369 11.4941 10.7771 10.8629 11.0477 10.2841C11.3183 9.70526 11.7127 9.19292 12.203 8.78327C12.6934 8.37361 13.2677 8.07662 13.8854 7.91329C14.5032 7.74997 15.1492 7.72427 15.778 7.83804C16.6661 7.99825 17.4827 8.42985 18.1154 9.07343C18.748 9.71701 19.1656 10.5409 19.3106 11.4316C19.4556 12.3224 19.3208 13.2362 18.9249 14.0471C18.529 14.8581 17.8914 15.5264 17.1 15.96C16.9047 16.0897 16.7467 16.268 16.6415 16.4774C16.5362 16.6868 16.4875 16.92 16.5 17.154H13.5Z" fill="#6E6E6E"/>
<path d="M16.5649 18.994H13.5649V21.994H16.5649V18.994Z" fill="#6E6E6E"/>
</svg>
