<svg width="30" height="30" viewBox="0 0 30 30" fill="none" xmlns="http://www.w3.org/2000/svg">
<path fill-rule="evenodd" clip-rule="evenodd" d="M20.8893 4.13315C21.616 3.40755 22.601 3 23.6279 3C24.6549 3 25.6399 3.40755 26.3666 4.13315C27.0919 4.85999 27.4996 5.84521 27.4996 6.87205C27.4996 7.89889 27.0922 8.8838 26.3669 9.61064L10.9775 25H27V27.5H8.47754H3V25V22.0225L20.8893 4.13315ZM5.49999 25H7.44649L20.5063 11.95L18.5599 10.0035L5.49999 23.0536V25ZM23.6299 5.49771C23.2649 5.49771 22.9148 5.64272 22.6567 5.90083L20.3274 8.22735L22.2691 10.1733L24.6873 7.75509C24.8926 7.50878 25.0063 7.19728 25.0063 6.87405C25.0063 6.50903 24.8613 6.15895 24.6032 5.90083C24.3451 5.64272 23.995 5.49771 23.6299 5.49771Z" fill="#6E6E6E"/>
</svg>
