<svg width="30" height="30" viewBox="0 0 30 30" fill="none" xmlns="http://www.w3.org/2000/svg">
<path fill-rule="evenodd" clip-rule="evenodd" d="M11.309 23.1899V23.1896L11.3089 23.1896C11.3089 23.1897 11.309 23.1898 11.309 23.1899ZM7.13507 11.8C7.13507 9.24714 8.16524 6.82477 9.95931 5.15237C11.5997 3.62345 13.703 2.86431 15.8795 3.01995C20.1577 3.32034 23.5246 7.28426 23.5246 12.0619V15.4853C23.5246 17.5768 24.1979 19.6128 25.4213 21.2189C25.6897 21.5711 25.7352 22.0451 25.5388 22.4417C25.3424 22.8386 24.9379 23.0896 24.495 23.0896H19.2586L19.2507 23.1811C19.0766 25.2031 17.3945 26.8 15.3299 26.8C13.2648 26.8 11.5827 25.2031 11.4086 23.1811L11.4007 23.0896H6.16472C5.72184 23.0896 5.31728 22.8386 5.12089 22.4416C4.9245 22.0451 4.96999 21.5711 5.23845 21.2188C6.46184 19.6128 7.13507 17.5768 7.13507 15.4853V11.8ZM15.7163 5.3434C14.1911 5.23935 12.7084 5.77465 11.5476 6.85629C10.2226 8.09172 9.46465 9.89411 9.46465 11.8V15.4853C9.46465 17.2763 9.06445 19.0377 8.31492 20.6172L8.24713 20.7601L22.4126 20.7601L22.3448 20.6172C21.5953 19.0377 21.1951 17.2762 21.1951 15.4853V12.0619C21.1951 8.5229 18.8003 5.56035 15.7163 5.3434ZM16.942 23.0896H13.7174L13.7457 23.2122C13.9125 23.9321 14.5593 24.4704 15.3299 24.4704C16.1 24.4704 16.7469 23.9321 16.9136 23.2122L16.942 23.0896Z" fill="#6E6E6E"/>
</svg>
